<?xml version="1.0" encoding="UTF-8" standalone="no"?>
<!DOCTYPE svg PUBLIC "-//W3C//DTD SVG 1.1//EN"
 "http://www.w3.org/Graphics/SVG/1.1/DTD/svg11.dtd">
<!-- Generated by graphviz version 2.40.1 (20161225.0304)
 -->
<!-- Title: models_diagram Pages: 1 -->
<svg width="633pt" height="225pt"
 viewBox="0.00 0.00 633.08 225.00" xmlns="http://www.w3.org/2000/svg" xmlns:xlink="http://www.w3.org/1999/xlink">
<g id="graph0" class="graph" transform="scale(1 1) rotate(0) translate(4 221)">
<title>models_diagram</title>
<polygon fill="transparent" stroke="transparent" points="-4,4 -4,-221 629.0835,-221 629.0835,4 -4,4"/>
<!-- _diagram_info -->
<g id="node1" class="node">
<title>_diagram_info</title>
<text text-anchor="start" x="8" y="-202.6" font-family="Times,serif" font-size="13.00" fill="#000000">Models diagram</text>
<text text-anchor="start" x="8" y="-189.6" font-family="Times,serif" font-size="13.00" fill="#000000">Date: Oct 17 2019 &#45; 17:18</text>
<text text-anchor="start" x="8" y="-176.6" font-family="Times,serif" font-size="13.00" fill="#000000">Migration version: 20191017185215</text>
<text text-anchor="start" x="8" y="-163.6" font-family="Times,serif" font-size="13.00" fill="#000000">Generated by RailRoady 1.5.3</text>
<text text-anchor="start" x="8" y="-150.6" font-family="Times,serif" font-size="13.00" fill="#000000">http://railroady.prestonlee.com</text>
</g>
<!-- Step -->
<g id="node2" class="node">
<title>Step</title>
<ellipse fill="none" stroke="#000000" cx="262.6877" cy="-18" rx="27" ry="18"/>
<text text-anchor="middle" x="262.6877" y="-13.8" font-family="Times,serif" font-size="14.00" fill="#000000">Step</text>
</g>
<!-- KindStepUser -->
<g id="node3" class="node">
<title>KindStepUser</title>
<ellipse fill="none" stroke="#000000" cx="154.6877" cy="-18" rx="60.4288" ry="18"/>
<text text-anchor="middle" x="154.6877" y="-13.8" font-family="Times,serif" font-size="14.00" fill="#000000">KindStepUser</text>
</g>
<!-- Citizen -->
<g id="node4" class="node">
<title>Citizen</title>
<ellipse fill="none" stroke="#000000" cx="343.6877" cy="-180.5" rx="35.7974" ry="18"/>
<text text-anchor="middle" x="343.6877" y="-176.3" font-family="Times,serif" font-size="14.00" fill="#000000">Citizen</text>
</g>
<!-- Owner -->
<g id="node5" class="node">
<title>Owner</title>
<ellipse fill="none" stroke="#000000" cx="343.6877" cy="-18" rx="34.344" ry="18"/>
<text text-anchor="middle" x="343.6877" y="-13.8" font-family="Times,serif" font-size="14.00" fill="#000000">Owner</text>
</g>
<!-- Citizen&#45;&gt;Owner -->
<g id="edge1" class="edge">
<title>Citizen&#45;&gt;Owner</title>
<path fill="none" stroke="#952376" d="M351.2705,-154.5717C356.7394,-132.5931 362.5365,-100.2354 358.6877,-72 357.4919,-63.2269 355.2508,-53.8675 352.8588,-45.4473"/>
<ellipse fill="none" stroke="#952376" cx="350.2221" cy="-158.5866" rx="4" ry="4"/>
<polygon fill="#952376" stroke="#952376" points="352.8195,-45.3171 354.2337,-34.4428 351.3728,-40.531 349.9262,-35.7448 349.9262,-35.7448 349.9262,-35.7448 351.3728,-40.531 345.6186,-37.0468 352.8195,-45.3171 352.8195,-45.3171"/>
</g>
<!-- Demand -->
<g id="node9" class="node">
<title>Demand</title>
<ellipse fill="none" stroke="#000000" cx="309.6877" cy="-90" rx="40.1317" ry="18"/>
<text text-anchor="middle" x="309.6877" y="-85.8" font-family="Times,serif" font-size="14.00" fill="#000000">Demand</text>
</g>
<!-- Citizen&#45;&gt;Demand -->
<g id="edge2" class="edge">
<title>Citizen&#45;&gt;Demand</title>
<path fill="none" stroke="#b36397" d="M333.3683,-153.032C329.1053,-141.685 324.1759,-128.5639 319.9219,-117.2408"/>
<polygon fill="#b36397" stroke="#b36397" points="333.4535,-153.2589 332.7579,-164.2027 335.212,-157.9395 336.9704,-162.6201 336.9704,-162.6201 336.9704,-162.6201 335.212,-157.9395 341.183,-161.0375 333.4535,-153.2589 333.4535,-153.2589"/>
<polygon fill="#b36397" stroke="#b36397" points="319.9081,-117.2039 320.6036,-106.2601 318.1496,-112.5233 316.3911,-107.8427 316.3911,-107.8427 316.3911,-107.8427 318.1496,-112.5233 312.1786,-109.4254 319.9081,-117.2039 319.9081,-117.2039"/>
</g>
<!-- Ability -->
<g id="node6" class="node">
<title>Ability</title>
<polygon fill="none" stroke="#000000" points="452.3577,-198.5 397.0178,-198.5 397.0178,-162.5 452.3577,-162.5 452.3577,-198.5"/>
<text text-anchor="middle" x="424.6877" y="-176.3" font-family="Times,serif" font-size="14.00" fill="#000000">Ability</text>
</g>
<!-- KindStep -->
<g id="node7" class="node">
<title>KindStep</title>
<ellipse fill="none" stroke="#000000" cx="207.6877" cy="-90" rx="43.5319" ry="18"/>
<text text-anchor="middle" x="207.6877" y="-85.8" font-family="Times,serif" font-size="14.00" fill="#000000">KindStep</text>
</g>
<!-- KindStep&#45;&gt;Step -->
<g id="edge3" class="edge">
<title>KindStep&#45;&gt;Step</title>
<path fill="none" stroke="#80742e" d="M226.032,-65.9857C231.7516,-58.4983 238.0676,-50.23 243.8222,-42.6967"/>
<ellipse fill="none" stroke="#80742e" cx="223.4299" cy="-69.3921" rx="4" ry="4"/>
<polygon fill="#80742e" stroke="#80742e" points="244.1799,-42.2284 253.8264,-37.0134 247.2151,-38.2551 250.2503,-34.2817 250.2503,-34.2817 250.2503,-34.2817 247.2151,-38.2551 246.6743,-31.55 244.1799,-42.2284 244.1799,-42.2284"/>
</g>
<!-- KindStep&#45;&gt;KindStepUser -->
<g id="edge4" class="edge">
<title>KindStep&#45;&gt;KindStepUser</title>
<path fill="none" stroke="#3572c1" d="M190.0168,-65.9942C184.7921,-58.8965 179.0504,-51.0965 173.7425,-43.8857"/>
<ellipse fill="none" stroke="#3572c1" cx="192.4866" cy="-69.3495" rx="4" ry="4"/>
<polygon fill="#3572c1" stroke="#3572c1" points="173.6958,-43.8223 171.3916,-33.1012 170.7317,-39.7956 167.7676,-35.7689 167.7676,-35.7689 167.7676,-35.7689 170.7317,-39.7956 164.1436,-38.4366 173.6958,-43.8223 173.6958,-43.8223"/>
</g>
<!-- ApplicationRecord -->
<g id="node8" class="node">
<title>ApplicationRecord</title>
<ellipse fill="none" stroke="#000000" cx="547.6877" cy="-180.5" rx="77.2916" ry="18"/>
<text text-anchor="middle" x="547.6877" y="-176.3" font-family="Times,serif" font-size="14.00" fill="#000000">ApplicationRecord</text>
</g>
<!-- Demand&#45;&gt;Step -->
<g id="edge6" class="edge">
<title>Demand&#45;&gt;Step</title>
<path fill="none" stroke="#be74cc" d="M293.8839,-65.7899C289.2074,-58.6258 284.0737,-50.7614 279.345,-43.5174"/>
<ellipse fill="none" stroke="#be74cc" cx="296.1238" cy="-69.2213" rx="4" ry="4"/>
<polygon fill="#be74cc" stroke="#be74cc" points="279.103,-43.1467 277.4049,-32.3131 276.3699,-38.9598 273.6367,-34.7729 273.6367,-34.7729 273.6367,-34.7729 276.3699,-38.9598 269.8685,-37.2327 279.103,-43.1467 279.103,-43.1467"/>
</g>
<!-- Demand&#45;&gt;Owner -->
<g id="edge5" class="edge">
<title>Demand&#45;&gt;Owner</title>
<path fill="none" stroke="#e79a77" d="M321.5987,-64.7769C324.6562,-58.3022 327.9556,-51.3152 331.0485,-44.7655"/>
<ellipse fill="none" stroke="#e79a77" cx="319.8003" cy="-68.5852" rx="4" ry="4"/>
<polygon fill="#e79a77" stroke="#e79a77" points="331.1098,-44.6355 339.449,-37.5146 333.2449,-40.1143 335.3799,-35.593 335.3799,-35.593 335.3799,-35.593 333.2449,-40.1143 331.3108,-33.6715 331.1098,-44.6355 331.1098,-44.6355"/>
</g>
<!-- User -->
<g id="node10" class="node">
<title>User</title>
<ellipse fill="none" stroke="#000000" cx="118.6877" cy="-90" rx="27" ry="18"/>
<text text-anchor="middle" x="118.6877" y="-85.8" font-family="Times,serif" font-size="14.00" fill="#000000">User</text>
</g>
<!-- User&#45;&gt;KindStepUser -->
<g id="edge7" class="edge">
<title>User&#45;&gt;KindStepUser</title>
<path fill="none" stroke="#c90057" d="M131.0907,-65.1941C134.3112,-58.753 137.7972,-51.781 141.0763,-45.2229"/>
<ellipse fill="none" stroke="#c90057" cx="129.1912" cy="-68.9931" rx="4" ry="4"/>
<polygon fill="#c90057" stroke="#c90057" points="141.2053,-44.9649 149.7024,-38.0331 143.4414,-40.4927 145.6774,-36.0206 145.6774,-36.0206 145.6774,-36.0206 143.4414,-40.4927 141.6525,-34.0081 141.2053,-44.9649 141.2053,-44.9649"/>
</g>
<!-- Kind -->
<g id="node11" class="node">
<title>Kind</title>
<ellipse fill="none" stroke="#000000" cx="252.6877" cy="-180.5" rx="27.589" ry="18"/>
<text text-anchor="middle" x="252.6877" y="-176.3" font-family="Times,serif" font-size="14.00" fill="#000000">Kind</text>
</g>
<!-- Kind&#45;&gt;KindStep -->
<g id="edge9" class="edge">
<title>Kind&#45;&gt;KindStep</title>
<path fill="none" stroke="#ed7648" d="M240.2634,-155.5132C234.3095,-143.5392 227.1692,-129.1795 221.093,-116.9595"/>
<ellipse fill="none" stroke="#ed7648" cx="242.2303" cy="-159.469" rx="4" ry="4"/>
<polygon fill="#ed7648" stroke="#ed7648" points="220.9435,-116.6587 220.5205,-105.701 218.7173,-112.1816 216.4911,-107.7045 216.4911,-107.7045 216.4911,-107.7045 218.7173,-112.1816 212.4617,-109.7081 220.9435,-116.6587 220.9435,-116.6587"/>
</g>
<!-- Kind&#45;&gt;Demand -->
<g id="edge8" class="edge">
<title>Kind&#45;&gt;Demand</title>
<path fill="none" stroke="#1d2a9d" d="M267.9187,-156.3175C275.7009,-143.9615 285.1823,-128.9077 293.1435,-116.2676"/>
<ellipse fill="none" stroke="#1d2a9d" cx="265.5408" cy="-160.093" rx="4" ry="4"/>
<polygon fill="#1d2a9d" stroke="#1d2a9d" points="293.2963,-116.0249 302.4335,-109.9616 295.961,-111.7941 298.6258,-107.5633 298.6258,-107.5633 298.6258,-107.5633 295.961,-111.7941 294.8181,-105.1651 293.2963,-116.0249 293.2963,-116.0249"/>
</g>
</g>
</svg>
