<?xml version="1.0" encoding="UTF-8" standalone="no"?>
<!DOCTYPE svg PUBLIC "-//W3C//DTD SVG 1.1//EN"
 "http://www.w3.org/Graphics/SVG/1.1/DTD/svg11.dtd">
<!-- Generated by graphviz version 2.40.1 (20161225.0304)
 -->
<!-- Title: models_diagram Pages: 1 -->
<svg width="1258pt" height="607pt"
 viewBox="0.00 0.00 1258.03 607.00" xmlns="http://www.w3.org/2000/svg" xmlns:xlink="http://www.w3.org/1999/xlink">
<g id="graph0" class="graph" transform="scale(1 1) rotate(0) translate(4 603)">
<title>models_diagram</title>
<polygon fill="transparent" stroke="transparent" points="-4,4 -4,-603 1254.0305,-603 1254.0305,4 -4,4"/>
<!-- _diagram_info -->
<g id="node1" class="node">
<title>_diagram_info</title>
<text text-anchor="start" x="159.947" y="-542.6" font-family="Times,serif" font-size="13.00" fill="#000000">Models diagram</text>
<text text-anchor="start" x="159.947" y="-529.6" font-family="Times,serif" font-size="13.00" fill="#000000">Date: Oct 17 2019 &#45; 17:18</text>
<text text-anchor="start" x="159.947" y="-516.6" font-family="Times,serif" font-size="13.00" fill="#000000">Migration version: 20191017185215</text>
<text text-anchor="start" x="159.947" y="-503.6" font-family="Times,serif" font-size="13.00" fill="#000000">Generated by RailRoady 1.5.3</text>
<text text-anchor="start" x="159.947" y="-490.6" font-family="Times,serif" font-size="13.00" fill="#000000">http://railroady.prestonlee.com</text>
</g>
<!-- Step -->
<g id="node2" class="node">
<title>Step</title>
<path fill="none" stroke="#000000" d="M389.6104,-.5C389.6104,-.5 629.6592,-.5 629.6592,-.5 635.6592,-.5 641.6592,-6.5 641.6592,-12.5 641.6592,-12.5 641.6592,-102.5 641.6592,-102.5 641.6592,-108.5 635.6592,-114.5 629.6592,-114.5 629.6592,-114.5 389.6104,-114.5 389.6104,-114.5 383.6104,-114.5 377.6104,-108.5 377.6104,-102.5 377.6104,-102.5 377.6104,-12.5 377.6104,-12.5 377.6104,-6.5 383.6104,-.5 389.6104,-.5"/>
<text text-anchor="middle" x="509.6348" y="-99.3" font-family="Times,serif" font-size="14.00" fill="#000000">Step</text>
<polyline fill="none" stroke="#000000" points="377.6104,-92.5 641.6592,-92.5 "/>
<text text-anchor="start" x="385.6104" y="-77.3" font-family="Times,serif" font-size="14.00" fill="#000000">id :bigint</text>
<text text-anchor="start" x="385.6104" y="-63.3" font-family="Times,serif" font-size="14.00" fill="#000000">kind_step_id :bigint</text>
<text text-anchor="start" x="385.6104" y="-49.3" font-family="Times,serif" font-size="14.00" fill="#000000">demand_id :bigint</text>
<text text-anchor="start" x="385.6104" y="-35.3" font-family="Times,serif" font-size="14.00" fill="#000000">user_id :bigint</text>
<text text-anchor="start" x="385.6104" y="-21.3" font-family="Times,serif" font-size="14.00" fill="#000000">created_at :timestamp(6) without time zone</text>
<text text-anchor="start" x="385.6104" y="-7.3" font-family="Times,serif" font-size="14.00" fill="#000000">updated_at :timestamp(6) without time zone</text>
</g>
<!-- KindStepUser -->
<g id="node3" class="node">
<title>KindStepUser</title>
<path fill="none" stroke="#000000" d="M93.6104,-7.5C93.6104,-7.5 333.6592,-7.5 333.6592,-7.5 339.6592,-7.5 345.6592,-13.5 345.6592,-19.5 345.6592,-19.5 345.6592,-95.5 345.6592,-95.5 345.6592,-101.5 339.6592,-107.5 333.6592,-107.5 333.6592,-107.5 93.6104,-107.5 93.6104,-107.5 87.6104,-107.5 81.6104,-101.5 81.6104,-95.5 81.6104,-95.5 81.6104,-19.5 81.6104,-19.5 81.6104,-13.5 87.6104,-7.5 93.6104,-7.5"/>
<text text-anchor="middle" x="213.6348" y="-92.3" font-family="Times,serif" font-size="14.00" fill="#000000">KindStepUser</text>
<polyline fill="none" stroke="#000000" points="81.6104,-85.5 345.6592,-85.5 "/>
<text text-anchor="start" x="89.6104" y="-70.3" font-family="Times,serif" font-size="14.00" fill="#000000">id :bigint</text>
<text text-anchor="start" x="89.6104" y="-56.3" font-family="Times,serif" font-size="14.00" fill="#000000">kind_step_id :bigint</text>
<text text-anchor="start" x="89.6104" y="-42.3" font-family="Times,serif" font-size="14.00" fill="#000000">user_id :bigint</text>
<text text-anchor="start" x="89.6104" y="-28.3" font-family="Times,serif" font-size="14.00" fill="#000000">created_at :timestamp(6) without time zone</text>
<text text-anchor="start" x="89.6104" y="-14.3" font-family="Times,serif" font-size="14.00" fill="#000000">updated_at :timestamp(6) without time zone</text>
</g>
<!-- Citizen -->
<g id="node4" class="node">
<title>Citizen</title>
<path fill="none" stroke="#000000" d="M751.6104,-442.5C751.6104,-442.5 991.6592,-442.5 991.6592,-442.5 997.6592,-442.5 1003.6592,-448.5 1003.6592,-454.5 1003.6592,-454.5 1003.6592,-586.5 1003.6592,-586.5 1003.6592,-592.5 997.6592,-598.5 991.6592,-598.5 991.6592,-598.5 751.6104,-598.5 751.6104,-598.5 745.6104,-598.5 739.6104,-592.5 739.6104,-586.5 739.6104,-586.5 739.6104,-454.5 739.6104,-454.5 739.6104,-448.5 745.6104,-442.5 751.6104,-442.5"/>
<text text-anchor="middle" x="871.6348" y="-583.3" font-family="Times,serif" font-size="14.00" fill="#000000">Citizen</text>
<polyline fill="none" stroke="#000000" points="739.6104,-576.5 1003.6592,-576.5 "/>
<text text-anchor="start" x="747.6104" y="-561.3" font-family="Times,serif" font-size="14.00" fill="#000000">updated_at :timestamp(6) without time zone</text>
<text text-anchor="start" x="747.6104" y="-547.3" font-family="Times,serif" font-size="14.00" fill="#000000">name :character varying</text>
<text text-anchor="start" x="747.6104" y="-533.3" font-family="Times,serif" font-size="14.00" fill="#000000">cpf :character varying</text>
<text text-anchor="start" x="747.6104" y="-519.3" font-family="Times,serif" font-size="14.00" fill="#000000">cnpj :character varying</text>
<text text-anchor="start" x="747.6104" y="-505.3" font-family="Times,serif" font-size="14.00" fill="#000000">address :character varying</text>
<text text-anchor="start" x="747.6104" y="-491.3" font-family="Times,serif" font-size="14.00" fill="#000000">phone :character varying</text>
<text text-anchor="start" x="747.6104" y="-477.3" font-family="Times,serif" font-size="14.00" fill="#000000">user_id :bigint</text>
<text text-anchor="start" x="747.6104" y="-463.3" font-family="Times,serif" font-size="14.00" fill="#000000">created_at :timestamp(6) without time zone</text>
<text text-anchor="start" x="747.6104" y="-449.3" font-family="Times,serif" font-size="14.00" fill="#000000">id :bigint</text>
</g>
<!-- Owner -->
<g id="node5" class="node">
<title>Owner</title>
<path fill="none" stroke="#000000" d="M751.6104,-.5C751.6104,-.5 991.6592,-.5 991.6592,-.5 997.6592,-.5 1003.6592,-6.5 1003.6592,-12.5 1003.6592,-12.5 1003.6592,-102.5 1003.6592,-102.5 1003.6592,-108.5 997.6592,-114.5 991.6592,-114.5 991.6592,-114.5 751.6104,-114.5 751.6104,-114.5 745.6104,-114.5 739.6104,-108.5 739.6104,-102.5 739.6104,-102.5 739.6104,-12.5 739.6104,-12.5 739.6104,-6.5 745.6104,-.5 751.6104,-.5"/>
<text text-anchor="middle" x="871.6348" y="-99.3" font-family="Times,serif" font-size="14.00" fill="#000000">Owner</text>
<polyline fill="none" stroke="#000000" points="739.6104,-92.5 1003.6592,-92.5 "/>
<text text-anchor="start" x="747.6104" y="-77.3" font-family="Times,serif" font-size="14.00" fill="#000000">id :bigint</text>
<text text-anchor="start" x="747.6104" y="-63.3" font-family="Times,serif" font-size="14.00" fill="#000000">citizen_id :bigint</text>
<text text-anchor="start" x="747.6104" y="-49.3" font-family="Times,serif" font-size="14.00" fill="#000000">demand_id :bigint</text>
<text text-anchor="start" x="747.6104" y="-35.3" font-family="Times,serif" font-size="14.00" fill="#000000">user_id :bigint</text>
<text text-anchor="start" x="747.6104" y="-21.3" font-family="Times,serif" font-size="14.00" fill="#000000">created_at :timestamp(6) without time zone</text>
<text text-anchor="start" x="747.6104" y="-7.3" font-family="Times,serif" font-size="14.00" fill="#000000">updated_at :timestamp(6) without time zone</text>
</g>
<!-- Citizen&#45;&gt;Owner -->
<g id="edge1" class="edge">
<title>Citizen&#45;&gt;Owner</title>
<path fill="none" stroke="#934d47" d="M889.1722,-434.2673C890.591,-424.7622 891.7982,-415.1987 892.6348,-406 902.8995,-293.1325 905.1288,-263.6425 892.6348,-151 891.6753,-142.3498 890.2311,-133.3306 888.5402,-124.4543"/>
<ellipse fill="none" stroke="#934d47" cx="888.5488" cy="-438.276" rx="4" ry="4"/>
<polygon fill="#934d47" stroke="#934d47" points="888.514,-124.3239 890.9505,-113.6321 887.5266,-119.4224 886.5392,-114.5208 886.5392,-114.5208 886.5392,-114.5208 887.5266,-119.4224 882.1278,-115.4095 888.514,-124.3239 888.514,-124.3239"/>
</g>
<!-- Demand -->
<g id="node9" class="node">
<title>Demand</title>
<path fill="none" stroke="#000000" d="M631.6104,-151.5C631.6104,-151.5 871.6592,-151.5 871.6592,-151.5 877.6592,-151.5 883.6592,-157.5 883.6592,-163.5 883.6592,-163.5 883.6592,-393.5 883.6592,-393.5 883.6592,-399.5 877.6592,-405.5 871.6592,-405.5 871.6592,-405.5 631.6104,-405.5 631.6104,-405.5 625.6104,-405.5 619.6104,-399.5 619.6104,-393.5 619.6104,-393.5 619.6104,-163.5 619.6104,-163.5 619.6104,-157.5 625.6104,-151.5 631.6104,-151.5"/>
<text text-anchor="middle" x="751.6348" y="-390.3" font-family="Times,serif" font-size="14.00" fill="#000000">Demand</text>
<polyline fill="none" stroke="#000000" points="619.6104,-383.5 883.6592,-383.5 "/>
<text text-anchor="start" x="627.6104" y="-368.3" font-family="Times,serif" font-size="14.00" fill="#000000">updated_at :timestamp(6) without time zone</text>
<text text-anchor="start" x="627.6104" y="-354.3" font-family="Times,serif" font-size="14.00" fill="#000000">description :character varying</text>
<text text-anchor="start" x="627.6104" y="-340.3" font-family="Times,serif" font-size="14.00" fill="#000000">status :integer</text>
<text text-anchor="start" x="627.6104" y="-326.3" font-family="Times,serif" font-size="14.00" fill="#000000">kind_id :bigint</text>
<text text-anchor="start" x="627.6104" y="-312.3" font-family="Times,serif" font-size="14.00" fill="#000000">user_id :bigint</text>
<text text-anchor="start" x="627.6104" y="-298.3" font-family="Times,serif" font-size="14.00" fill="#000000">done_at :timestamp without time zone</text>
<text text-anchor="start" x="627.6104" y="-284.3" font-family="Times,serif" font-size="14.00" fill="#000000">protocol :character varying</text>
<text text-anchor="start" x="627.6104" y="-270.3" font-family="Times,serif" font-size="14.00" fill="#000000">address :character varying</text>
<text text-anchor="start" x="627.6104" y="-256.3" font-family="Times,serif" font-size="14.00" fill="#000000">neighborhood :character varying</text>
<text text-anchor="start" x="627.6104" y="-242.3" font-family="Times,serif" font-size="14.00" fill="#000000">block :character varying</text>
<text text-anchor="start" x="627.6104" y="-228.3" font-family="Times,serif" font-size="14.00" fill="#000000">lot :character varying</text>
<text text-anchor="start" x="627.6104" y="-214.3" font-family="Times,serif" font-size="14.00" fill="#000000">allotment :character varying</text>
<text text-anchor="start" x="627.6104" y="-200.3" font-family="Times,serif" font-size="14.00" fill="#000000">subunit :character varying</text>
<text text-anchor="start" x="627.6104" y="-186.3" font-family="Times,serif" font-size="14.00" fill="#000000">current_kind_step_id :bigint</text>
<text text-anchor="start" x="627.6104" y="-172.3" font-family="Times,serif" font-size="14.00" fill="#000000">created_at :timestamp(6) without time zone</text>
<text text-anchor="start" x="627.6104" y="-158.3" font-family="Times,serif" font-size="14.00" fill="#000000">id :bigint</text>
</g>
<!-- Citizen&#45;&gt;Demand -->
<g id="edge2" class="edge">
<title>Citizen&#45;&gt;Demand</title>
<path fill="none" stroke="#3fbb14" d="M828.2817,-433.0714C825.3094,-427.0772 822.2779,-420.9637 819.2197,-414.7964"/>
<polygon fill="#3fbb14" stroke="#3fbb14" points="828.3974,-433.3047 828.8084,-444.2629 830.6186,-437.7842 832.8399,-442.2637 832.8399,-442.2637 832.8399,-442.2637 830.6186,-437.7842 836.8715,-440.2646 828.3974,-433.3047 828.3974,-433.3047"/>
<polygon fill="#3fbb14" stroke="#3fbb14" points="819.1663,-414.6886 818.7554,-403.7304 816.9451,-410.2091 814.7238,-405.7296 814.7238,-405.7296 814.7238,-405.7296 816.9451,-410.2091 810.6922,-407.7287 819.1663,-414.6886 819.1663,-414.6886"/>
</g>
<!-- Ability -->
<g id="node6" class="node">
<title>Ability</title>
<polygon fill="none" stroke="#000000" points="1021.8003,-498.5 1021.8003,-542.5 1077.4692,-542.5 1077.4692,-498.5 1021.8003,-498.5"/>
<text text-anchor="middle" x="1049.6348" y="-527.3" font-family="Times,serif" font-size="14.00" fill="#000000">Ability</text>
<polyline fill="none" stroke="#000000" points="1021.8003,-520.5 1077.4692,-520.5 "/>
<text text-anchor="middle" x="1049.6348" y="-505.3" font-family="Times,serif" font-size="14.00" fill="#000000"> </text>
</g>
<!-- KindStep -->
<g id="node7" class="node">
<title>KindStep</title>
<path fill="none" stroke="#000000" d="M349.6104,-214.5C349.6104,-214.5 589.6592,-214.5 589.6592,-214.5 595.6592,-214.5 601.6592,-220.5 601.6592,-226.5 601.6592,-226.5 601.6592,-330.5 601.6592,-330.5 601.6592,-336.5 595.6592,-342.5 589.6592,-342.5 589.6592,-342.5 349.6104,-342.5 349.6104,-342.5 343.6104,-342.5 337.6104,-336.5 337.6104,-330.5 337.6104,-330.5 337.6104,-226.5 337.6104,-226.5 337.6104,-220.5 343.6104,-214.5 349.6104,-214.5"/>
<text text-anchor="middle" x="469.6348" y="-327.3" font-family="Times,serif" font-size="14.00" fill="#000000">KindStep</text>
<polyline fill="none" stroke="#000000" points="337.6104,-320.5 601.6592,-320.5 "/>
<text text-anchor="start" x="345.6104" y="-305.3" font-family="Times,serif" font-size="14.00" fill="#000000">id :bigint</text>
<text text-anchor="start" x="345.6104" y="-291.3" font-family="Times,serif" font-size="14.00" fill="#000000">name :character varying</text>
<text text-anchor="start" x="345.6104" y="-277.3" font-family="Times,serif" font-size="14.00" fill="#000000">valid_time :boolean</text>
<text text-anchor="start" x="345.6104" y="-263.3" font-family="Times,serif" font-size="14.00" fill="#000000">kind_id :bigint</text>
<text text-anchor="start" x="345.6104" y="-249.3" font-family="Times,serif" font-size="14.00" fill="#000000">user_id :bigint</text>
<text text-anchor="start" x="345.6104" y="-235.3" font-family="Times,serif" font-size="14.00" fill="#000000">created_at :timestamp(6) without time zone</text>
<text text-anchor="start" x="345.6104" y="-221.3" font-family="Times,serif" font-size="14.00" fill="#000000">updated_at :timestamp(6) without time zone</text>
</g>
<!-- KindStep&#45;&gt;Step -->
<g id="edge3" class="edge">
<title>KindStep&#45;&gt;Step</title>
<path fill="none" stroke="#2116ca" d="M482.75,-206.0381C487.4868,-179.8673 492.8105,-150.4542 497.463,-124.7489"/>
<ellipse fill="none" stroke="#2116ca" cx="481.9706" cy="-210.3447" rx="4" ry="4"/>
<polygon fill="#2116ca" stroke="#2116ca" points="497.4963,-124.5647 503.7054,-115.5261 498.3868,-119.6446 499.2774,-114.7246 499.2774,-114.7246 499.2774,-114.7246 498.3868,-119.6446 494.8493,-113.9231 497.4963,-124.5647 497.4963,-124.5647"/>
</g>
<!-- KindStep&#45;&gt;KindStepUser -->
<g id="edge4" class="edge">
<title>KindStep&#45;&gt;KindStepUser</title>
<path fill="none" stroke="#5f7418" d="M393.8563,-208.6478C372.9232,-189.7171 350.0678,-169.3815 328.6348,-151 314.5441,-138.9155 299.2627,-126.217 284.5806,-114.21"/>
<ellipse fill="none" stroke="#5f7418" cx="397.0315" cy="-211.524" rx="4" ry="4"/>
<polygon fill="#5f7418" stroke="#5f7418" points="284.2472,-113.9382 279.3405,-104.1313 280.372,-110.7786 276.4968,-107.6189 276.4968,-107.6189 276.4968,-107.6189 280.372,-110.7786 273.6532,-111.1066 284.2472,-113.9382 284.2472,-113.9382"/>
</g>
<!-- ApplicationRecord -->
<g id="node8" class="node">
<title>ApplicationRecord</title>
<ellipse fill="none" stroke="#000000" cx="1172.6348" cy="-520.5" rx="77.2916" ry="18"/>
<text text-anchor="middle" x="1172.6348" y="-516.3" font-family="Times,serif" font-size="14.00" fill="#000000">ApplicationRecord</text>
</g>
<!-- Demand&#45;&gt;Step -->
<g id="edge6" class="edge">
<title>Demand&#45;&gt;Step</title>
<path fill="none" stroke="#e84588" d="M613.1558,-152.0378C601.6423,-141.5234 590.3445,-131.206 579.6913,-121.4772"/>
<ellipse fill="none" stroke="#e84588" cx="616.3521" cy="-154.9567" rx="4" ry="4"/>
<polygon fill="#e84588" stroke="#e84588" points="579.4383,-121.2462 575.0886,-111.1799 575.7462,-117.8745 572.0541,-114.5028 572.0541,-114.5028 572.0541,-114.5028 575.7462,-117.8745 569.0195,-117.8257 579.4383,-121.2462 579.4383,-121.2462"/>
</g>
<!-- Demand&#45;&gt;Owner -->
<g id="edge5" class="edge">
<title>Demand&#45;&gt;Owner</title>
<path fill="none" stroke="#594001" d="M824.6217,-144.0825C828.4501,-137.0318 832.2044,-130.1177 835.8181,-123.4624"/>
<ellipse fill="none" stroke="#594001" cx="822.6527" cy="-147.7087" rx="4" ry="4"/>
<polygon fill="#594001" stroke="#594001" points="835.8807,-123.347 844.6072,-116.7062 838.2666,-118.9529 840.6526,-114.5589 840.6526,-114.5589 840.6526,-114.5589 838.2666,-118.9529 836.6979,-112.4116 835.8807,-123.347 835.8807,-123.347"/>
</g>
<!-- User -->
<g id="node10" class="node">
<title>User</title>
<path fill="none" stroke="#000000" d="M12,-193.5C12,-193.5 307.2695,-193.5 307.2695,-193.5 313.2695,-193.5 319.2695,-199.5 319.2695,-205.5 319.2695,-205.5 319.2695,-351.5 319.2695,-351.5 319.2695,-357.5 313.2695,-363.5 307.2695,-363.5 307.2695,-363.5 12,-363.5 12,-363.5 6,-363.5 0,-357.5 0,-351.5 0,-351.5 0,-205.5 0,-205.5 0,-199.5 6,-193.5 12,-193.5"/>
<text text-anchor="middle" x="159.6348" y="-348.3" font-family="Times,serif" font-size="14.00" fill="#000000">User</text>
<polyline fill="none" stroke="#000000" points="0,-341.5 319.2695,-341.5 "/>
<text text-anchor="start" x="8" y="-326.3" font-family="Times,serif" font-size="14.00" fill="#000000">remember_created_at :timestamp without time zone</text>
<text text-anchor="start" x="8" y="-312.3" font-family="Times,serif" font-size="14.00" fill="#000000">name :character varying</text>
<text text-anchor="start" x="8" y="-298.3" font-family="Times,serif" font-size="14.00" fill="#000000">role :integer</text>
<text text-anchor="start" x="8" y="-284.3" font-family="Times,serif" font-size="14.00" fill="#000000">created_at :timestamp(6) without time zone</text>
<text text-anchor="start" x="8" y="-270.3" font-family="Times,serif" font-size="14.00" fill="#000000">updated_at :timestamp(6) without time zone</text>
<text text-anchor="start" x="8" y="-256.3" font-family="Times,serif" font-size="14.00" fill="#000000">email :character varying</text>
<text text-anchor="start" x="8" y="-242.3" font-family="Times,serif" font-size="14.00" fill="#000000">encrypted_password :character varying</text>
<text text-anchor="start" x="8" y="-228.3" font-family="Times,serif" font-size="14.00" fill="#000000">reset_password_token :character varying</text>
<text text-anchor="start" x="8" y="-214.3" font-family="Times,serif" font-size="14.00" fill="#000000">reset_password_sent_at :timestamp without time zone</text>
<text text-anchor="start" x="8" y="-200.3" font-family="Times,serif" font-size="14.00" fill="#000000">id :bigint</text>
</g>
<!-- User&#45;&gt;KindStepUser -->
<g id="edge7" class="edge">
<title>User&#45;&gt;KindStepUser</title>
<path fill="none" stroke="#d6fe7f" d="M182.3543,-185.5184C187.9817,-162.4876 193.8637,-138.4149 198.9887,-117.4406"/>
<ellipse fill="none" stroke="#d6fe7f" cx="181.3848" cy="-189.4861" rx="4" ry="4"/>
<polygon fill="#d6fe7f" stroke="#d6fe7f" points="198.9889,-117.4392 205.734,-108.7931 200.1758,-112.5821 201.3626,-107.725 201.3626,-107.725 201.3626,-107.725 200.1758,-112.5821 196.9912,-106.6568 198.9889,-117.4392 198.9889,-117.4392"/>
</g>
<!-- Kind -->
<g id="node11" class="node">
<title>Kind</title>
<path fill="none" stroke="#000000" d="M389.6104,-463.5C389.6104,-463.5 629.6592,-463.5 629.6592,-463.5 635.6592,-463.5 641.6592,-469.5 641.6592,-475.5 641.6592,-475.5 641.6592,-565.5 641.6592,-565.5 641.6592,-571.5 635.6592,-577.5 629.6592,-577.5 629.6592,-577.5 389.6104,-577.5 389.6104,-577.5 383.6104,-577.5 377.6104,-571.5 377.6104,-565.5 377.6104,-565.5 377.6104,-475.5 377.6104,-475.5 377.6104,-469.5 383.6104,-463.5 389.6104,-463.5"/>
<text text-anchor="middle" x="509.6348" y="-562.3" font-family="Times,serif" font-size="14.00" fill="#000000">Kind</text>
<polyline fill="none" stroke="#000000" points="377.6104,-555.5 641.6592,-555.5 "/>
<text text-anchor="start" x="385.6104" y="-540.3" font-family="Times,serif" font-size="14.00" fill="#000000">id :bigint</text>
<text text-anchor="start" x="385.6104" y="-526.3" font-family="Times,serif" font-size="14.00" fill="#000000">name :character varying</text>
<text text-anchor="start" x="385.6104" y="-512.3" font-family="Times,serif" font-size="14.00" fill="#000000">nature :character varying</text>
<text text-anchor="start" x="385.6104" y="-498.3" font-family="Times,serif" font-size="14.00" fill="#000000">user_id :bigint</text>
<text text-anchor="start" x="385.6104" y="-484.3" font-family="Times,serif" font-size="14.00" fill="#000000">created_at :timestamp(6) without time zone</text>
<text text-anchor="start" x="385.6104" y="-470.3" font-family="Times,serif" font-size="14.00" fill="#000000">updated_at :timestamp(6) without time zone</text>
</g>
<!-- Kind&#45;&gt;KindStep -->
<g id="edge9" class="edge">
<title>Kind&#45;&gt;KindStep</title>
<path fill="none" stroke="#4cdd5c" d="M498.8461,-455.2286C493.622,-423.6226 487.325,-385.5258 481.9172,-352.8086"/>
<ellipse fill="none" stroke="#4cdd5c" cx="499.5536" cy="-459.5094" rx="4" ry="4"/>
<polygon fill="#4cdd5c" stroke="#4cdd5c" points="481.9005,-352.7069 484.7094,-342.1069 481.085,-347.7738 480.2696,-342.8408 480.2696,-342.8408 480.2696,-342.8408 481.085,-347.7738 475.8298,-343.5747 481.9005,-352.7069 481.9005,-352.7069"/>
</g>
<!-- Kind&#45;&gt;Demand -->
<g id="edge8" class="edge">
<title>Kind&#45;&gt;Demand</title>
<path fill="none" stroke="#eabbd0" d="M572.497,-457.6378C586.3883,-443.7465 601.6207,-428.5141 617.1531,-412.9817"/>
<ellipse fill="none" stroke="#eabbd0" cx="569.5074" cy="-460.6274" rx="4" ry="4"/>
<polygon fill="#eabbd0" stroke="#eabbd0" points="617.2359,-412.8988 627.489,-409.0097 620.7715,-409.3633 624.307,-405.8277 624.307,-405.8277 624.307,-405.8277 620.7715,-409.3633 621.125,-402.6458 617.2359,-412.8988 617.2359,-412.8988"/>
</g>
</g>
</svg>
